<?xml version="1.0" encoding="UTF-8"?>
<svg width="373px" height="465px" viewBox="0 0 373 465" version="1.1" xmlns="http://www.w3.org/2000/svg" xmlns:xlink="http://www.w3.org/1999/xlink" xmlns:sketch="http://www.bohemiancoding.com/sketch/ns">
    <title>leave-guy</title>
    <description>Created with Sketch (http://www.bohemiancoding.com/sketch)</description>
    <defs></defs>
    <g id="Page-1" stroke="none" stroke-width="1" fill="none" fill-rule="evenodd" sketch:type="MSPage">
        <g id="confused" sketch:type="MSLayerGroup">
            <g id="Group" sketch:type="MSShapeGroup">
                <path d="M372.553,231.046 C372.553,252.486 357.073,270.376 336.703,274.146 L336.703,307.986 C336.603,322.616 331.923,336.436 323.143,348.036 L264.093,426.076 C245.773,450.286 216.723,464.736 186.373,464.736 C156.013,464.736 126.963,450.286 108.643,426.076 L49.593,348.036 C40.643,336.206 35.833,321.526 36.033,306.686 L36.033,274.146 C15.663,270.376 0.183,252.486 0.183,231.046 C0.183,209.596 15.663,191.716 36.033,187.936 L36.033,163.006 C36.033,134.106 44.063,105.846 59.243,81.286 C74.263,56.986 95.623,37.326 121.013,24.416 C129.153,20.276 161.763,6.836 194.803,0.156 C198.453,-0.574 202.133,1.306 203.673,4.696 C205.213,8.096 204.203,12.096 201.243,14.366 C192.273,21.206 186.043,28.846 181.753,35.786 C203.833,22.886 239.973,6.006 277.873,6.006 C281.083,6.006 283.973,7.916 285.233,10.856 C286.493,13.806 285.873,17.216 283.653,19.536 C276.573,26.936 270.523,35.056 265.723,42.326 C304.743,28.466 349.023,33.526 351.273,33.796 C354.303,34.156 356.853,36.206 357.873,39.086 C358.883,41.956 358.173,45.156 356.043,47.336 L328.193,75.816 C320.103,84.106 317.683,96.286 322.053,106.846 C332.303,131.686 335.703,162.746 336.503,187.906 C356.973,191.596 372.553,209.526 372.553,231.046 L372.553,231.046 Z M356.553,231.046 C356.553,218.466 348.173,207.816 336.703,204.366 L336.703,257.716 C348.173,254.266 356.553,243.616 356.553,231.046 L356.553,231.046 Z M316.753,64.636 L332.273,48.766 C311.233,48.476 275.263,50.816 250.353,67.636 C247.383,69.636 243.433,69.426 240.703,67.106 C237.963,64.786 237.113,60.936 238.603,57.676 C238.993,56.806 246.423,40.746 259.443,23.436 C211.893,30.646 170.113,62.476 169.643,62.836 C167.063,64.826 163.523,65.056 160.713,63.396 C157.893,61.746 156.363,58.546 156.853,55.316 C156.983,54.436 159.383,39.406 171.203,22.656 C150.623,28.866 133.433,36.046 128.263,38.676 C105.483,50.256 86.323,67.896 72.853,89.696 C59.233,111.726 52.033,137.076 52.033,163.006 L52.033,306.746 L52.033,306.866 C51.873,318.176 55.533,329.366 62.353,338.376 L121.403,416.426 C136.713,436.656 161.003,448.736 186.373,448.736 C211.743,448.736 236.023,436.656 251.333,416.426 L310.393,338.376 C317.063,329.556 320.633,319.036 320.703,307.946 L320.703,254.276 L320.703,200.906 C320.703,155.116 313.393,127.806 307.263,112.956 C300.453,96.466 304.183,77.506 316.753,64.636 L316.753,64.636 Z M36.033,257.716 L36.033,204.366 C24.563,207.816 16.183,218.466 16.183,231.046 C16.183,243.616 24.563,254.266 36.033,257.716 L36.033,257.716 Z" id="Shape" fill="#333333"></path>
                <path d="M336.703,204.366 C348.173,207.816 356.553,218.466 356.553,231.046 C356.553,243.616 348.173,254.266 336.703,257.716 L336.703,204.366 L336.703,204.366 Z" id="Shape" fill="#FCD9EB"></path>
                <path d="M332.273,48.766 L316.753,64.636 C304.183,77.506 300.453,96.466 307.263,112.956 C313.393,127.806 320.703,155.116 320.703,200.906 L320.703,254.276 L320.703,307.946 C320.633,319.036 317.063,329.556 310.393,338.376 L251.333,416.426 C236.023,436.656 211.743,448.736 186.373,448.736 C161.003,448.736 136.713,436.656 121.403,416.426 L62.353,338.376 C55.533,329.366 51.873,318.176 52.033,306.866 L52.033,306.746 L52.033,163.006 C52.033,137.076 59.233,111.726 72.853,89.696 C86.323,67.896 105.483,50.256 128.263,38.676 C133.433,36.046 150.623,28.866 171.203,22.656 C159.383,39.406 156.983,54.436 156.853,55.316 C156.363,58.546 157.893,61.746 160.713,63.396 C163.523,65.056 167.063,64.826 169.643,62.836 C170.113,62.476 211.893,30.646 259.443,23.436 C246.423,40.746 238.993,56.806 238.603,57.676 C237.113,60.936 237.963,64.786 240.703,67.106 C243.433,69.426 247.383,69.636 250.353,67.636 C275.263,50.816 311.233,48.476 332.273,48.766 L332.273,48.766 Z M316.103,241.896 L316.103,166.096 C316.103,147.346 306.913,130.096 291.513,119.966 C290.813,119.506 290.133,119.076 289.483,118.696 C274.933,110.226 258.363,105.746 241.543,105.746 L131.193,105.746 C115.213,105.746 99.373,109.806 85.373,117.496 C67.643,127.236 56.633,145.886 56.633,166.176 L56.633,241.896 C56.633,256.566 61.973,271.266 71.723,283.346 L72.713,284.606 C86.243,301.726 110.663,306.346 129.503,295.366 C146.753,285.316 166.413,280.006 186.373,280.006 C206.323,280.006 225.993,285.316 243.233,295.366 C250.113,299.376 257.743,301.306 265.303,301.306 C278.463,301.306 291.433,295.476 300.023,284.606 L301.073,283.276 C310.763,271.266 316.103,256.566 316.103,241.896 L316.103,241.896 Z M255.923,331.286 C258.453,327.656 257.563,322.676 253.943,320.146 C241.783,311.646 225.443,311.646 213.283,320.146 C206.603,324.806 197.623,324.806 190.953,320.146 C178.793,311.656 162.453,311.656 150.293,320.146 C143.613,324.806 134.633,324.806 127.953,320.146 C124.333,317.616 119.343,318.496 116.813,322.126 C114.283,325.746 115.173,330.726 118.793,333.256 C130.953,341.756 147.293,341.756 159.453,333.266 C166.133,328.596 175.103,328.596 181.783,333.266 C187.863,337.506 194.993,339.636 202.113,339.636 C209.243,339.636 216.363,337.506 222.453,333.256 C229.123,328.596 238.103,328.596 244.783,333.256 C248.403,335.786 253.393,334.906 255.923,331.286 L255.923,331.286 Z" id="Shape" fill="#DDD67A"></path>
                <path d="M316.103,166.096 L316.103,241.896 C316.103,256.566 310.763,271.266 301.073,283.276 L300.023,284.606 C291.433,295.476 278.463,301.306 265.303,301.306 C257.743,301.306 250.113,299.376 243.233,295.366 C225.993,285.316 206.323,280.006 186.373,280.006 C166.413,280.006 146.753,285.316 129.503,295.366 C110.663,306.346 86.243,301.726 72.713,284.606 L71.723,283.346 C61.973,271.266 56.633,256.566 56.633,241.896 L56.633,166.176 C56.633,145.886 67.643,127.236 85.373,117.496 C99.373,109.806 115.213,105.746 131.193,105.746 L241.543,105.746 C258.363,105.746 274.933,110.226 289.483,118.696 C290.133,119.076 290.813,119.506 291.513,119.966 C306.913,130.096 316.103,147.346 316.103,166.096 L316.103,166.096 Z M300.103,241.896 L300.103,166.096 C300.103,152.746 293.603,140.496 282.713,133.326 C282.273,133.036 281.843,132.766 281.423,132.526 C269.323,125.466 255.533,121.746 241.543,121.746 L131.193,121.746 C117.903,121.746 104.723,125.126 93.073,131.526 C80.463,138.446 72.633,151.726 72.633,166.176 L72.633,241.896 C72.633,252.926 76.713,264.056 84.113,273.236 L85.263,274.686 C93.893,285.596 109.443,288.546 121.453,281.546 C141.143,270.066 163.583,264.006 186.373,264.006 C209.153,264.006 231.603,270.066 251.293,281.546 C263.293,288.546 278.853,285.596 287.473,274.686 L288.573,273.286 C296.023,264.056 300.103,252.926 300.103,241.896 L300.103,241.896 Z" id="Shape" fill="#333333"></path>
                <path d="M300.103,166.096 L300.103,241.896 C300.103,252.926 296.023,264.056 288.573,273.286 L287.473,274.686 C278.853,285.596 263.293,288.546 251.293,281.546 C231.603,270.066 209.153,264.006 186.373,264.006 C163.583,264.006 141.143,270.066 121.453,281.546 C109.443,288.546 93.893,285.596 85.263,274.686 L84.113,273.236 C76.713,264.056 72.633,252.926 72.633,241.896 L72.633,166.176 C72.633,151.726 80.463,138.446 93.073,131.526 C104.723,125.126 117.903,121.746 131.193,121.746 L241.543,121.746 C255.533,121.746 269.323,125.466 281.423,132.526 C281.843,132.766 282.273,133.036 282.713,133.326 C293.603,140.496 300.103,152.746 300.103,166.096 L300.103,166.096 Z M287.323,235.596 C290.913,235.596 293.823,232.686 293.823,229.096 C293.823,207.676 276.393,190.246 254.963,190.246 C237.103,190.246 222.583,204.776 222.583,222.626 C222.583,237.626 234.783,249.836 249.793,249.836 C262.503,249.836 272.853,239.486 272.853,226.766 C272.853,215.876 263.993,207.016 253.103,207.016 C249.513,207.016 246.603,209.926 246.603,213.516 C246.603,217.106 249.513,220.016 253.103,220.016 C256.823,220.016 259.853,223.046 259.853,226.766 C259.853,232.316 255.333,236.836 249.793,236.836 C241.953,236.836 235.583,230.466 235.583,222.626 C235.583,211.936 244.273,203.246 254.963,203.246 C269.223,203.246 280.823,214.846 280.823,229.096 C280.823,232.686 283.733,235.596 287.323,235.596 L287.323,235.596 Z M122.953,249.836 C137.953,249.836 150.153,237.626 150.153,222.626 C150.153,204.776 135.633,190.246 117.773,190.246 C96.343,190.246 78.913,207.676 78.913,229.096 C78.913,232.686 81.823,235.596 85.413,235.596 C89.003,235.596 91.913,232.686 91.913,229.096 C91.913,214.846 103.513,203.246 117.773,203.246 C128.463,203.246 137.153,211.936 137.153,222.626 C137.153,230.466 130.783,236.836 122.953,236.836 C117.403,236.836 112.883,232.316 112.883,226.766 C112.883,223.046 115.913,220.016 119.633,220.016 C123.223,220.016 126.133,217.106 126.133,213.516 C126.133,209.926 123.223,207.016 119.633,207.016 C108.743,207.016 99.883,215.876 99.883,226.766 C99.883,239.486 110.233,249.836 122.953,249.836 L122.953,249.836 Z" id="Shape" fill="#FCD9EB"></path>
                <path d="M293.823,229.096 C293.823,232.686 290.913,235.596 287.323,235.596 C283.733,235.596 280.823,232.686 280.823,229.096 C280.823,214.846 269.223,203.246 254.963,203.246 C244.273,203.246 235.583,211.936 235.583,222.626 C235.583,230.466 241.953,236.836 249.793,236.836 C255.333,236.836 259.853,232.316 259.853,226.766 C259.853,223.046 256.823,220.016 253.103,220.016 C249.513,220.016 246.603,217.106 246.603,213.516 C246.603,209.926 249.513,207.016 253.103,207.016 C263.993,207.016 272.853,215.876 272.853,226.766 C272.853,239.486 262.503,249.836 249.793,249.836 C234.783,249.836 222.583,237.626 222.583,222.626 C222.583,204.776 237.103,190.246 254.963,190.246 C276.393,190.246 293.823,207.676 293.823,229.096 L293.823,229.096 Z" id="Shape" fill="#333333"></path>
                <path d="M253.943,320.146 C257.563,322.676 258.453,327.656 255.923,331.286 C253.393,334.906 248.403,335.786 244.783,333.256 C238.103,328.596 229.123,328.596 222.453,333.256 C216.363,337.506 209.243,339.636 202.113,339.636 C194.993,339.636 187.863,337.506 181.783,333.266 C175.103,328.596 166.133,328.596 159.453,333.266 C147.293,341.756 130.953,341.756 118.793,333.256 C115.173,330.726 114.283,325.746 116.813,322.126 C119.343,318.496 124.333,317.616 127.953,320.146 C134.633,324.806 143.613,324.806 150.293,320.146 C162.453,311.656 178.793,311.656 190.953,320.146 C197.623,324.806 206.603,324.806 213.283,320.146 C225.443,311.646 241.783,311.646 253.943,320.146 L253.943,320.146 Z" id="Shape" fill="#333333"></path>
                <path d="M150.153,222.626 C150.153,237.626 137.953,249.836 122.953,249.836 C110.233,249.836 99.883,239.486 99.883,226.766 C99.883,215.876 108.743,207.016 119.633,207.016 C123.223,207.016 126.133,209.926 126.133,213.516 C126.133,217.106 123.223,220.016 119.633,220.016 C115.913,220.016 112.883,223.046 112.883,226.766 C112.883,232.316 117.403,236.836 122.953,236.836 C130.783,236.836 137.153,230.466 137.153,222.626 C137.153,211.936 128.463,203.246 117.773,203.246 C103.513,203.246 91.913,214.846 91.913,229.096 C91.913,232.686 89.003,235.596 85.413,235.596 C81.823,235.596 78.913,232.686 78.913,229.096 C78.913,207.676 96.343,190.246 117.773,190.246 C135.633,190.246 150.153,204.776 150.153,222.626 L150.153,222.626 Z" id="Shape" fill="#333333"></path>
                <path d="M36.033,204.366 L36.033,257.716 C24.563,254.266 16.183,243.616 16.183,231.046 C16.183,218.466 24.563,207.816 36.033,204.366 L36.033,204.366 Z" id="Shape" fill="#FCD9EB"></path>
            </g>
        </g>
    </g>
</svg>